<?xml version="1.0" encoding="utf-8"?>
<!-- Generator: Adobe Illustrator 16.0.0, SVG Export Plug-In . SVG Version: 6.00 Build 0)  -->
<!DOCTYPE svg PUBLIC "-//W3C//DTD SVG 1.1//EN" "http://www.w3.org/Graphics/SVG/1.1/DTD/svg11.dtd">
<svg version="1.1" id="Capa_1" xmlns="http://www.w3.org/2000/svg" xmlns:xlink="http://www.w3.org/1999/xlink" x="0px" y="0px"
	 width="512px" height="512px" viewBox="0 0 512 512" enable-background="new 0 0 512 512" xml:space="preserve">
<g>
	<path fill="#FFFFFF" d="M475.714,72.001c-24.193-23.623-57.617-35.43-100.289-35.43c-11.809,0-23.86,2.047-36.143,6.141
		c-12.288,4.096-23.72,9.622-34.281,16.574c-10.576,6.95-19.665,13.477-27.289,19.57C270.096,84.952,262.855,91.43,256,98.285
		c-6.859-6.855-14.097-13.333-21.714-19.428c-7.622-6.093-16.714-12.616-27.288-19.57c-10.572-6.955-22.001-12.477-34.286-16.574
		c-12.284-4.092-24.333-6.141-36.142-6.141c-42.668,0-76.095,11.81-100.284,35.43C12.096,95.62,0,128.38,0,170.284
		c0,12.763,2.242,25.91,6.716,39.427c4.474,13.524,9.573,25.05,15.286,34.571c5.712,9.521,12.19,18.806,19.428,27.854
		c7.238,9.048,12.528,15.283,15.858,18.712c3.332,3.429,5.952,5.907,7.856,7.433l178.283,172c3.43,3.429,7.62,5.148,12.571,5.148
		c4.952,0,9.145-1.72,12.572-5.148l178-171.436c43.62-43.611,65.428-86.469,65.428-128.565
		C512,128.373,499.905,95.616,475.714,72.001z"/>
</g>
</svg>
