<?xml version="1.0" encoding="utf-8"?>
<!-- Generator: Adobe Illustrator 21.1.0, SVG Export Plug-In . SVG Version: 6.00 Build 0)  -->
<svg version="1.1" id="Layer_1" xmlns="http://www.w3.org/2000/svg" xmlns:xlink="http://www.w3.org/1999/xlink" x="0px" y="0px"
	 viewBox="0 0 188.2 127.9" style="enable-background:new 0 0 188.2 127.9;" xml:space="preserve">
<style type="text/css">
	.st0{opacity:0.71;fill:#E5BD4B;}
	.st1{opacity:0.71;fill:#215CA1;}
	.st2{fill:#FFFFFF;}
</style>
<path class="st0" d="M120.8,2.6c-82,19.6-165.7,56-93.1,96.9s145.1,23.3,158.1-36.7C198.9,2.8,155.2-5.5,120.8,2.6z"/>
<path class="st1" d="M92.1,0c0,0-121,7.1-68.4,64.9s140.4,85.8,147,40.7C177.4,60.6,187.1-1.5,92.1,0z"/>
<g>
	<path class="st2" d="M38.8,51.4l7.1,9.8l7.1-9.8v15.5h-2.5V59l-4.6,6.3L41.3,59v7.8h-2.5V51.4z"/>
	<path class="st2" d="M65.9,64.3h-5.8l-1,2.5h-2.8L63,51.4l6.8,15.5h-2.8L65.9,64.3z M65,62.2L63,57.1l-2.1,5.1H65z"/>
	<path class="st2" d="M73,52h5.5c2.6,0,4.7,2.1,4.7,4.7c0,2.6-2.1,4.7-4.7,4.7h-3v5.5H73V52z M78.6,58.8c1.2,0,2.2-1,2.2-2.2
		c0-1.2-1-2.2-2.2-2.2h-3v4.3H78.6z"/>
	<path class="st2" d="M86.2,63.6l2.3-1c0.3,1.2,1.2,2,2.4,2c1.3,0,2.2-0.9,2.2-2.1c0-1.4-1-1.7-2.8-2.4c-2.6-1-3.6-2.2-3.6-4.3
		c0-2.2,1.8-3.9,4.1-3.9c1.9,0,3.5,1.2,4,2.8l-2.3,1c-0.2-0.8-0.8-1.3-1.7-1.3c-0.9,0-1.6,0.6-1.6,1.4c0,1,0.4,1.4,2,2
		c1.7,0.7,4.4,1.4,4.4,4.7c0,2.6-2.1,4.6-4.8,4.6C88.7,67,86.8,65.6,86.2,63.6z"/>
	<path class="st2" d="M102,54.5h-3.8V52h10.1v2.5h-3.8v12.4H102V54.5z"/>
	<path class="st2" d="M115.2,59.7l-4.6-7.8h2.9l2.9,5.4l2.9-5.4h2.9l-4.6,7.8v7.1h-2.5V59.7z"/>
	<path class="st2" d="M125.5,52h2.5v12.4h5.6v2.5h-8.1V52z"/>
	<path class="st2" d="M137.3,52h9.3v2.5h-6.8v3.7h6v2.5h-6v3.7h6.8v2.5h-9.3V52z"/>
	<path class="st2" d="M158.8,66.8l-3.1-5.5h-2.2v5.5H151V52h5.5c2.6,0,4.7,2.1,4.7,4.7c0,2-1.2,3.7-2.9,4.4l3.4,5.8H158.8z
		 M153.5,58.8h3c1.2,0,2.2-1,2.2-2.2c0-1.2-1-2.2-2.2-2.2h-3V58.8z"/>
</g>
</svg>
