<?xml version="1.0" encoding="utf-8"?>
<!-- Generator: Adobe Illustrator 21.1.0, SVG Export Plug-In . SVG Version: 6.00 Build 0)  -->
<svg version="1.1" id="Layer_1" xmlns="http://www.w3.org/2000/svg" xmlns:xlink="http://www.w3.org/1999/xlink" x="0px" y="0px"
	 viewBox="0 0 188.2 127.9" style="enable-background:new 0 0 188.2 127.9;" xml:space="preserve">
<style type="text/css">
	.st0{opacity:0.71;fill:#F708F1;enable-background:new    ;}
	.st1{opacity:0.71;fill:#771569;enable-background:new    ;}
	.st2{fill:#FFFFFF;}
</style>
<path class="st0" d="M120.8,2.6c-82,19.6-165.7,56-93.1,96.9s145.1,23.3,158.1-36.7C198.9,2.8,155.2-5.5,120.8,2.6z"/>
<path class="st1" d="M92.1,0c0,0-121,7.1-68.4,64.9s140.4,85.8,147,40.7C177.4,60.6,187.1-1.5,92.1,0z"/>
<g>
	<path class="st2" d="M57.1,55.4c0.8,0.9,1.3,2.1,1.3,3.6v8.1h-3.7v-7c0-0.8-0.2-1.5-0.7-1.9c-0.4-0.5-1.1-0.7-1.8-0.7
		c-0.9,0-1.6,0.3-2.1,0.9c-0.5,0.6-0.8,1.4-0.8,2.4v6.4h-3.7v-7c0-0.8-0.2-1.5-0.7-1.9c-0.4-0.5-1-0.7-1.8-0.7
		c-0.9,0-1.6,0.3-2.1,0.9s-0.8,1.4-0.8,2.4v6.4h-3.7V54.2h3.7v2.2c0.9-1.6,2.4-2.3,4.4-2.4c1.1,0,2,0.3,2.8,0.8
		c0.8,0.5,1.3,1.3,1.6,2.2c0.4-1,1-1.7,1.8-2.2c0.8-0.5,1.7-0.8,2.8-0.8C55.1,54.1,56.3,54.5,57.1,55.4z"/>
	<path class="st2" d="M69,67.1v-1.5c-0.4,0.5-1,1-1.7,1.2s-1.5,0.4-2.4,0.4c-1.4,0-2.4-0.4-3.2-1.1c-0.8-0.7-1.2-1.7-1.2-2.9
		c0-1.2,0.4-2.2,1.3-2.8c0.9-0.7,2.1-1,3.6-1H69v-0.2c0-0.7-0.2-1.2-0.7-1.6s-1.1-0.6-2-0.6c-1.2,0-2.5,0.4-3.8,1.1l-1.2-2.5
		c1-0.5,2-0.9,2.9-1.1c0.9-0.2,1.9-0.4,3-0.4c1.7,0,3.1,0.4,4,1.2c1,0.8,1.4,2,1.5,3.4l0,8.4H69z M68,64.1c0.6-0.4,0.9-0.8,1-1.4
		v-1.2h-2.9c-0.7,0-1.3,0.1-1.6,0.3C64.2,62.2,64,62.5,64,63c0,0.5,0.2,0.9,0.5,1.2c0.4,0.3,0.9,0.4,1.5,0.4
		C66.8,64.7,67.4,64.5,68,64.1z"/>
	<path class="st2" d="M86.9,54.9c0.9,0.6,1.6,1.3,2.1,2.3c0.5,1,0.8,2.2,0.8,3.5c0,1.3-0.2,2.4-0.7,3.4c-0.5,1-1.2,1.7-2.1,2.3
		s-2,0.8-3.2,0.8c-0.9,0-1.7-0.2-2.4-0.5c-0.7-0.3-1.3-0.8-1.8-1.5v6.5H76V54.2h3.7v1.9c0.5-0.7,1-1.2,1.7-1.5
		c0.7-0.3,1.5-0.5,2.3-0.5C84.9,54.1,86,54.4,86.9,54.9z M85.2,63.2c0.6-0.7,0.9-1.5,0.9-2.6c0-1-0.3-1.9-0.9-2.6
		c-0.6-0.7-1.4-1-2.3-1c-0.9,0-1.7,0.3-2.3,1c-0.6,0.7-0.9,1.5-0.9,2.6c0,1.1,0.3,1.9,0.9,2.6c0.6,0.7,1.4,1,2.3,1
		C83.8,64.2,84.6,63.9,85.2,63.2z"/>
	<path class="st2" d="M98.3,57.1c-0.7-0.2-1.3-0.3-1.8-0.3c-0.4,0-0.8,0.1-1.1,0.2c-0.3,0.2-0.4,0.4-0.4,0.7c0,0.4,0.2,0.6,0.6,0.8
		c0.4,0.2,1,0.4,1.8,0.6c0.9,0.3,1.7,0.5,2.3,0.8c0.6,0.3,1.1,0.7,1.5,1.2c0.4,0.5,0.6,1.2,0.6,2.1c0,1.3-0.5,2.3-1.5,3
		c-1,0.7-2.2,1.1-3.8,1.1c-1.1,0-2.1-0.2-3-0.5c-1-0.3-1.8-0.8-2.5-1.3l1.2-2.5c0.7,0.5,1.4,0.9,2.2,1.2c0.8,0.3,1.6,0.4,2.3,0.4
		c0.5,0,0.9-0.1,1.2-0.3s0.4-0.4,0.4-0.8c0-0.4-0.2-0.7-0.6-0.9c-0.4-0.2-1-0.4-1.8-0.7c-0.9-0.3-1.6-0.5-2.2-0.8
		c-0.6-0.3-1.1-0.6-1.5-1.2c-0.4-0.5-0.6-1.2-0.6-2c0-1.3,0.5-2.3,1.4-3s2.2-1.1,3.6-1.1c0.9,0,1.8,0.1,2.6,0.4s1.7,0.6,2.4,1.1
		l-1.3,2.5C99.7,57.6,99,57.3,98.3,57.1z"/>
	<path class="st2" d="M112.2,66.4c-0.5,0.3-1,0.5-1.6,0.7c-0.6,0.2-1.2,0.2-1.8,0.2c-1.2,0-2.2-0.3-2.9-1c-0.8-0.7-1.1-1.7-1.1-3v-6
		H103v-2.5h1.8v-3.6h3.7v3.6h3.5v2.6h-3.5v5.3c0,1,0.4,1.5,1.2,1.5c0.5,0,1.1-0.2,1.8-0.5L112.2,66.4z"/>
	<path class="st2" d="M116,72c-0.7,0-1.3-0.1-1.9-0.3c-0.6-0.2-1.1-0.5-1.6-0.9l1.6-2.7c0.6,0.5,1.1,0.7,1.7,0.7
		c0.8,0,1.4-0.4,1.7-1.2l0.4-0.7l-5.4-12.6h3.8l3.4,8.9l3-8.9h3.7l-5.7,14.4C119.8,70.8,118.3,72,116,72z"/>
	<path class="st2" d="M128.1,49.3h3.7v17.8h-3.7V49.3z"/>
	<path class="st2" d="M145.8,55.9c1.1,1.2,1.6,2.9,1.6,5c0,0.4,0,0.7,0,0.9h-9.3c0.2,0.8,0.6,1.5,1.2,1.9s1.3,0.7,2.1,0.7
		c0.6,0,1.2-0.1,1.8-0.3c0.6-0.2,1.1-0.6,1.5-1l1.9,2c-0.7,0.7-1.5,1.3-2.4,1.7c-0.9,0.4-2,0.6-3.1,0.6c-1.4,0-2.5-0.3-3.6-0.8
		c-1-0.5-1.8-1.3-2.4-2.3c-0.6-1-0.8-2.1-0.8-3.4c0-1.3,0.3-2.5,0.8-3.5c0.6-1,1.3-1.8,2.4-2.3c1-0.6,2.2-0.8,3.5-0.8
		C143.1,54.1,144.7,54.7,145.8,55.9z M143.9,59.6c0-0.8-0.3-1.5-0.8-2s-1.2-0.8-2-0.8c-0.8,0-1.5,0.3-2,0.8s-0.9,1.2-1,2.1H143.9z"
		/>
	<path class="st2" d="M155.3,54.7c0.7-0.4,1.6-0.6,2.5-0.6v3.5c-0.1,0-0.3,0-0.6,0c-1.1,0-2,0.3-2.7,0.9c-0.7,0.6-1,1.4-1,2.5v6.2
		h-3.7V54.2h3.7v2.3C154,55.8,154.6,55.2,155.3,54.7z"/>
</g>
</svg>
